<svg xmlns="http://www.w3.org/2000/svg"
     viewBox="0 0 400 400"
     width="400"
     height="400">

  <defs>
    <linearGradient id="greenMix" x1="0" y1="0" x2="1" y2="1">
      <stop offset="0%" stop-color="#00ff88"/>
      <stop offset="100%" stop-color="#1aff00"/>
    </linearGradient>
  </defs>

  <!-- Dark badge -->
  <circle cx="200" cy="200" r="170"
          fill="#070b08"
          stroke="url(#greenMix)"
          stroke-width="8"/>

  <!-- Neon green S -->
  <path
    d="
      M270 110
      C240 70, 120 80, 120 140
      C120 175, 165 185, 205 195
      C250 205, 260 225, 245 250
      C225 290, 120 290, 115 235
      L115 215
      H175
      L175 235
      C180 260, 240 260, 245 235
      C250 210, 210 200, 170 190
      C120 175, 105 145, 125 115
      C150 75, 240 80, 270 110
      Z
    "
    fill="url(#greenMix)"/>

</svg>

